<svg id="Layer_1" data-name="Layer 1" xmlns="http://www.w3.org/2000/svg" viewBox="0 0 599.95 367"><defs><style>.cls-1{fill:#ffad17;}.cls-2{fill:#009cd6;}.cls-3{fill:#ff4026;}.cls-4{fill:#12213d;}</style></defs><title>Artboard 1</title><path class="cls-1" d="M77.09,83.57c-.49,0-1,0-1.1.14s-.26.3.12.33a2,2,0,0,0,.75,0C77.14,84,77.09,83.57,77.09,83.57Z"/><path class="cls-1" d="M80.34,81c.29-.14.65-.16.63,0s-.09.51-.31.49S80.14,81.1,80.34,81Z"/><path class="cls-1" d="M210,215.91c-.84-.42-1-1.49-1.75-1.54s-.75,0-1-1,.54-1.19.54-1.75-.19-.72-1.26-1.17-.77-1.35-1.78-1.71S204,207,204,206.22s.44-1.45,0-2.17-.56-.79-1.19-.75-1.24-.4-1.24-.86.79-.61.79-1.31-2.36-1.14-2.36-2.08.47-.84.47-1.4-.94-.68-1.07-1-.09-1.56,1.45-1.85,7.61-4.77,8.25-5,.84-1.31,1.33-1.35.44-.56,0-.56-.4-.63-1-.72-1.07.54-1.43.61-.61-.07-1-.47a1.1,1.1,0,0,1,.14-1.4c.3-.33-.33-.84.14-1.52s.3-1.19,0-1.31-.35.42-.89.44-.72-.44-.7-1.12a2.29,2.29,0,0,0-.56-1.54c-.37-.58-1.05-.3-1.77-.42s-.3-1.49-.4-2-.35-1.17-1.12-1.17-1.43,1.38-1.73,1.31-.47-.54,0-1a3.67,3.67,0,0,0,.68-2.2c.09-.77.68-1,.49-1.35s-.77-.28-1.24-.19-.86.72-1.26.4.19-1.64.4-2.34a4.75,4.75,0,0,0-.12-2.29c-.16-.68-.26-.77-1.17-.86s-.68-.37-.82-.91-.51-.56-1.43-.72-.63-.86-.86-1.35-.37-.56-1.05-.89,0-1.14-1-1.8-.79-1-.75-1.38.19-1.1-.86-1.1.72-.89-.7-1.42-1.14-1.59-1.59-2.13-.16-2.41-.51-3.48-1.17-1.52-1.92-2.64-1.07-.72-1.89-1.07-.33-2-.75-2.87-2.57-1.78-3.06-2-1.52-1.14-1.52-1.68.65-1.54.35-2.1a19,19,0,0,0-1.61-2.34c-.44-.51-.12-.61-.61-.91a1.79,1.79,0,0,1-1-1.28,3,3,0,0,0-.77-1.64c-.54-.7-.21-1.61-.21-2.41a2.37,2.37,0,0,0-.75-1.59c-.26-.3-1,0-1.54-.7a17.35,17.35,0,0,1-1.36-2.08c-.33-.58-.82-.23-1.45-.75s-.3-.7.16-.91.12-.72,0-1-1.28-1-1.66-1.28,0-1.17-.63-1.49-1.26-2.73-1.77-3.15-.4-1.66-1.1-2.69-.54-.86-.49-1.52-.49-1-1.28-1.14-.63-.79-1.35-1-.4-1.73-.84-2-.42-1.19-.68-1.57-.16-1.26-.23-1.78a1.32,1.32,0,0,0-.75-1,1.3,1.3,0,0,1-.58-1.1c-.09-.63.44-.35.19-1a2.05,2.05,0,0,0-1.52-1.1c-.61-.16-1.05-1.1-1.59-1.42s-.44-.7-.44-1.14-.56-.51-.58-.84.54-.86.47-1.4-.86-.82-1.21-1.05-.77-.33-1-1,.33-.84.72-1.24-.3-.37-.89-.56-.68-1.38-1.24-1.57-.58-1-.56-1.89,1.1-1.5,1.1-1.78.07-.49-.68-.58-1.52.68-1.89.56a.63.63,0,0,1-.49-.68,24.7,24.7,0,0,0,.49-3.29c0-1-.35-.77-1.05-1.12s-.44-.54-.84-.7-.51.12-1.07.3-.23-.28-1.4-.33-.54-1.54-1-1.64-1.21.77-1.61.51.68-1.49.91-1.85.07-1.17-.07-1.75-1.73-.63-2.34-.79-.49-1.64-.19-1.92,1.82-.14,2.38-.14.63-.37,1.17-.4.84.49,1.71.56,1.26-.47.68-.51-1-.49-1.68-.56-2.29.14-2.9,0-.26-1.17-.61-1.8-.89-.35-.89-1.1,1.42-.3,1.82-.56a13.2,13.2,0,0,1,3.36-.3,18.84,18.84,0,0,1,3.36.47c1.05.14,1.47,0,1.47-.37s-.77-.51-1.61-.51-2.24-.56-3.5-.61a8.75,8.75,0,0,1-3.67-1.19,3.8,3.8,0,0,0-2.64-.44.86.86,0,0,1-1.24-.3c-.35-.47.19-.63.56-.86s.09-.54-.61-.65a3,3,0,0,1-1.73-.91c-.42-.47-.63-.42-1.1-.77s-.16-.63.3-1a3.3,3.3,0,0,1,2-.28,24.4,24.4,0,0,0,3,.42c.91,0,.42-.33,1.4-.44a2.72,2.72,0,0,1,1.89.35,10.46,10.46,0,0,0,3.22.07c1.4,0,0-.37-.77-.37s-1.56-.4-1-.44,1.71-.33,1.38-.54a25.73,25.73,0,0,0-3.78-.16c-.82,0-1.15-.51-1.75-.51s-1.94.54-2.92.54a28.7,28.7,0,0,0-2.85.49c-.42,0-.79-.37-1-.37s-.35.42-1,.42-.3-1.4-.7-1.42-1-.68-1.31-.89a.65.65,0,0,1-.09-.89c.19-.3,0-1-.12-1.05s-.44.44-.93.42-.65-.72-.77-1-.16-.89-.58-.91-.72,1-.91,1.05-.35-.28-.35-.61.56-.7.58-1-.49-.63-.49-.93.84-.63,1.8-.63,2,1.76,2.34,2.1,1.21,2.2,1.77,2.2,1,1,1.38,1a.63.63,0,0,0,.63-.68c0-.37.37-.23.37-1s-1.47-1.45-1.49-2,.37-.72.7-1.05.86-.19.84-.47-.89-.4-1.26-.61-.26-1-.3-1.45-.89-.19-1.33-.35a1.18,1.18,0,0,1-.75-.65c-.14-.28.35-.42.82-.51s.63-.44.77-1,.91-.3,1.12-.4,0-.42-.21-.49-.89.12-1.33-.21S134,48.9,134,48.6s-.49-.63-.63-1,.4-1.24.7-1.78a3.13,3.13,0,0,1,2.27-1c.68,0,.4-.72.37-.86s-.44-.16-.93-.35-.3-1.94-.09-2.13,1.45.09,2,.14.91,0,1-.28.19-.23.44-.37,0-.4-.54-.49-1.54.12-1.82,0,0-.89-.16-1.19-.49-.33-1-.33-1.59.54-2.29.54-.89-.54-2.38-.54-2.57,2.41-2.76,3.13-.65,1.1-1.19,1.07-.26-1.05-.72-1.14-.42,1.38-.3,1.47.58,0,.68,1a2.86,2.86,0,0,0,1.07,1.82c.14.14.58.7.3,1.07s-.49.47-.23.54a2.55,2.55,0,0,1,1.31,1.35c.12.61.75,1,.79,1.71s-.54,1-.82,1.64-.44.7-.7.61-.16-.65-.21-1.24-.75-.54-.84-.77.07-.75-.07-1.19.4-.75.4-1.1-.37-1-.7-1-.93.47-1.54.49-1-.42-1.14-.44,0,.44-1.12.42-.75-1.28-1-2.13a5,5,0,0,1-.37-1.78c0-.7.56-.65.54-1.19s-.4-.72-1-.65-1.35,1.54-1.82,1.61-1,0-1-.61.61-.58.63-1.24,1.17-1.73,1.17-2.1,0-.82-.47-.82-.58.4-1,.47S118,39.4,118,39s.49-.75.54-1.19,1.87-2.13,2-2.31.72-.58.65-.84-1,0-1.07-.49.61-1.61.61-2.29,1.05-1.14.93-1.45-1.26-.86-1.4-1.17.23-1.26-.42-1.42-1.47,1-1.71,1a.46.46,0,0,1-.51-.42c-.07-.33,1.52-2.55,1.54-2.73s-.56-.61-.58-1,.58-.86.58-1.05a8.57,8.57,0,0,1-.42-2c0-1.05.33-3.39-2.08-3.39s-9.39,6.91-9.87,7.26a4.37,4.37,0,0,0-2,4,6.83,6.83,0,0,0,1.94,4.55c.12.26.09.58-.33.58s-1-.12-1.24.3.63.89.89,1.26.14.72-.49,1a3.46,3.46,0,0,1-1.49.51c-.49,0-.4.61,0,.77s.91.58,1.31.72.47.79.44,1.05-.49.14-1,.14-.49-.33-.75-.42a.53.53,0,0,0-.68.28c-.07.26-.44.21-.79,0s-.47.79,0,1,.84.21.66.91-.1,1.75.16,1.8.7,0,.75.23.3.37.84.4.72.19.7.51-.54.37-.75.54a3.75,3.75,0,0,1-1.87-.09,7.83,7.83,0,0,0-1.24-.28c-.33,0-1,.56-1.35,1s.23,1.14.09,1.52-.68.09-.93.28.49.65.84.82.21,1.17,0,1.45a6.26,6.26,0,0,0-.54.75c-.26.42-.23-.35-.61-.37s-.63.93-.7,1.31.35.19.21.63-1,.63-1.38.63-.88-.21-1.16.42.42.7.32,1.51-1.16.6-1.79.81-5.47-.25-6.06-.25-1,.81-1.19,1.19-.14.7-.81,1.05-.56-.14-.91,0S86,59.3,86,59.82a14.06,14.06,0,0,0,0,1.72c0,.42-.35.6-.7.67s-.91.14-.77.42.6.14,1.16.63.6-.11.95,0,.42,1-.28,1.12-1.26-.14-2,0-.63.21-.91.7.6.25.67,1.05-.35.77-.88,1.23-.28.39-.14.7,3-.07,3.61,0,.91.7,1.44.6,1.72,0,1.72.18.42.42-.77.32-1.16.28-1.16.77.56.91.39,1.33-.49-.14-.84.21a4.31,4.31,0,0,0-.67,1.33c-.25.53-.56,0-1,.25s-.35.53-.39,1.33a1.7,1.7,0,0,1-.81,1.3c-.21.21-.32,1.33-.6,1.86s-.95.67-1.44,1,.28,1.09,0,1.54a5.5,5.5,0,0,1-1.12,1.09c-.39.35.28.81.35,1.12s-.21.42-.77.67-.56,0-1,0-.67.35-1.47.39-.84.14-.67.6,1,.84,1.09,1.37-.46.74-.88.81-.39.39-.7.49-.39-.07-.77,0-.32,1.16.18,1.16,1.16,1,.56,1.23-1.82-.28-2.24,0-.11.81-.81,1-.35,1.65-.31,2.1.56.39.46.91-.49.42-.77.42-.74-.39-.81-.21a1.08,1.08,0,0,0,.63,1.16c.63.28.21.07,0,.7s-.46-.14-.7-.39-1.09.39-1.37.74,0,.6.21,1.19a9.25,9.25,0,0,1,0,3.26c-.18.46-.81.14-1.65.18s-.81.77-1.37,1.09-.95.07-1.16.46.42.67.84.56,1,.25,1.33.42-.7.84-1.47,1.09a4.45,4.45,0,0,1-1.92,0c-.67,0-.46-.42-.7-.35s-.35.84.42.91,1.19.53,1.89.56.07.81-.39,1-.7-.14-1.26-.25-1.23-.42-1.68,0,.39.91.39,1.44.53.46.28.91-.67.14-1.51.35-.7.46-.81,1.51-.91,1.19-.63,1.75,1.44.28,1.89.67.07,1.19-.63,1.89-1.19.63-1.61,1.05-.18,1.93-1.19,2-1.4.49-1.54,1-2.7,2-3.36,2.14-1.86-.35-2.14,0,1.26,1.65,1.82,2.14.25.67-.25,1-2-.32-1.89.25,1.65.81,2.56.95.56,1.26,0,1.54-1-.11-1.79-.14-1.4.32-1.44.67.42,1.68.46,2.24a1.48,1.48,0,0,1-.63,1.33c-.49.46-1.3,1.4-1.75,1.79s-.25.95-.25,2a3.29,3.29,0,0,1-1.44,2.52c-.63.39-1.16.53-1.54.84s.46,1.33,0,1.82-.49.18-1.54,0-.6-.46-.91-.56-.81.39-.63.53a5.62,5.62,0,0,1,1.4,1.37c.21.49,0,1.09-.84,1.33s-.56.67-.18.88a1.46,1.46,0,0,1,.6,1.4c-.17.35-.14,1-.81,1s-.91-.32-1.4-.28-.77,1.4-1.23,1.82,0,.88.18,1,.91.53.91,1.19-.32.53-.74.42-.53-.32-.84,0-.95,0-1.37.25.14.88.28,1.3a4.17,4.17,0,0,1,.39,1.54c0,.56-1.36,1.15-1.64,1.52s-.42.14-.74.56.37,1.35.42,1.91-.51.65-.74.93-.37.93-.88,1.07a1.61,1.61,0,0,0-1,.84c-.23.37.23.79.65,1.16s.51.47.09.74-1.35,0-1.81,0-1,0-1,.23,1,.7,1.07,1.21-.56.79-1.12,1.3-.51.7-.51,1.12-.09.6-.65.88-.6-.09-.88,0,.09.65.51.88,1.07.7.84,1.16-.88-.14-1.16,0a8.32,8.32,0,0,0-1.21,1.3c-.28.33-.88.19-1.21.37s0,.6.28,1-.33.84-.7,1.21-1.26.37-1.63.56.74,1.12,1,1.3a1.47,1.47,0,0,1,.65,1.1c0,.4-.84.2-1.3.06a1.42,1.42,0,0,0-.84,0,2.08,2.08,0,0,0,.47.84.86.86,0,0,1,0,1.16,9.19,9.19,0,0,1-1.26,1.33c-.74.5-1.36-.31-1.74,0s.19,1.74.31,2.11a1.37,1.37,0,0,1-.5,1.24c-.37.37-2.3-.68-2.61,0s1.86,1.86,1.86,2.73-1.24.93-2.11,1.43-.12,1.18.56,1.49-1,1.18-1.36,1.68-1.92.12-1.92.74.62.25.74,1.24-.56,1.05-.68,1.49-1.49,1-2.17,1.12-.93.43-.56,1,1.18.87,1.18,1.68-1.3,1.36-1.86,1.8.31.87,1.3.87,1.24-.06,1.74.31-.19.74-.87.74-1.36.31-1.18,1.12,1.36.87,1.86.87,1.55.68,2.42.48a5.88,5.88,0,0,1,3.3.33c.82.43-.26,1-1.75,1s-2.23-.31-3.35-.31-2.17-.81-2.92-1-1.37,1.3-2,1.24a8.18,8.18,0,0,0-2.48,0c-.19.19,1.05.81,1,1.55s-1.3.93-1.55,1.18.81.87.81.87.43,1,.12,1-.74-.43-1-.43-.93.25-.87.87S12,209.77,12.25,210s.31.77-.06.77a14.14,14.14,0,0,1-2-.74c-.56-.19-1.3.74-1.3,1.37s-.81,1.49-1.12,2.3.74,1.18,1.36,1.61a16,16,0,0,0,3.78,1.05,14.85,14.85,0,0,0,4.22.43c1.24-.19,3.54.5,3.6,1.06s-1.61.62-2.54.62-2.85-.37-3.6-.43-3.78-.68-4.4-.81a17.33,17.33,0,0,0-2.61-.43c-1.06-.06-.56.87,1.68,1.43s10.17,1.43,11.42,1.5,2.3,1.48,3.68,1.48,3,.19,4.57.31,6.51.19,7.69.19.87-.43,1.68-.43,2.61,1.05,3.29,1.05l6.58-.06a.53.53,0,0,1,0,1.05c-.81.12-2.48-.06-4.28-.06s-1.49.87-2.23.87-.62-.87-4.34-.74-11-.5-12.66-.62-9.68-.93-10.61-1.05-2.73-.68-3.6-.68-1.55-.37-3-.56a21.88,21.88,0,0,1-2.61-.25c-1-.25-.81-.62-1.36-.43s.06.74.5,1,1,.74,1,1.24-2.3,1.3-2.73,1.92S.52,224.67.09,225s.5,1,1.18,1.86a6.08,6.08,0,0,0,2.92,2.23c1.74.74,2.3.68,4.09,1.3s3,0,4.53,0,4.06.95,6,1c1.12,0,3.35.93,3.86.93s1.49-.42,1.94-.42a24,24,0,0,0,2.59.47c1.1,0,2.27.47,3.15.47s1.64-.35,2.69-.37,3.5.44,4.55.49,3.11.89,4.16.89,1.07-.47,2.27-.47,17.22-.12,20.53-.12,1.71-.33,7.1-.33,27.54,2,35,2A89.62,89.62,0,0,0,127.73,232c4.41-1.26,6.47-1.14,20.84-1.14s34.17-8.55,35.36-9.23,4.65-1.14,6.68-1.05a37.69,37.69,0,0,0,7.64-.84c1.71-.4,8.5-.23,9.32-.3s1.17-1.54,1.85-1.66a5.52,5.52,0,0,0,2.13-1.19C211.78,216.34,210.84,216.34,210,215.91ZM108.32,45.8c.44-.23,1,0,1.69.12s0,.7-.37,1-.57.09-1.32-.19S107.88,46,108.32,45.8ZM99.8,64.65c.12-.22.82-.35,1-.28s.33.16.26.63-.19.68-.63.61S99.61,65,99.8,64.65ZM101.18,72c-.89,0-2.13-.77-2.36-.61a2.15,2.15,0,0,1-1.49,0,4.52,4.52,0,0,0-2.08-.58c-1.19,0-2.38-1-3.36-1s-2.34-.91-1.17-1c.61,0,1.63-.63,2.64-.68a5.08,5.08,0,0,1,3,1,5.1,5.1,0,0,0,2.8,1.12c.93,0,2.71.12,2.9.63S102.06,72,101.18,72Zm.58-4.39a3.08,3.08,0,0,1-1.35-.28c-.35-.14-1-.14-1-.37,0-.47.16-.93.47-.91a9.78,9.78,0,0,1,1.26.45,1.57,1.57,0,0,1,.84.71C102.27,67.57,102.34,67.57,101.76,67.59Zm.39-3.53a14.06,14.06,0,0,1,4-.35,7.46,7.46,0,0,0,1.82.63c.75.07,5.82-.07,6.4,0s.89,1.09,0,1.09-1.75.61-2.62.58-.51.54-2,.54-6.8.21-7.36,0S101.21,64.41,102.15,64.06Zm10.12,4.67c-.47,0-.63-.6-.63-.6.19-.07.56-.15.63,0S112.74,68.72,112.27,68.74Zm-5.91-.4c0,.16-.35.14-.58,0s-.66-.5-.33-.61.82-.51.91-.14A1.3,1.3,0,0,1,106.36,68.34Zm3.2,4.51c-1.17,0-3,0-3.39,0s-.89.42-1.21.4-2.16-.93-1.77-1.89c.19-.47.93.09,1.7.33a19.52,19.52,0,0,0,4.27.21C109.65,71.8,110.73,72.8,109.56,72.85Zm-.19-4.13c-.91-.07-2,.07-2.22,0s-.47-.83-.19-.92a5.43,5.43,0,0,1,2.27-.21c.42.18,1,.58.93.75S110.29,68.78,109.37,68.71Zm2.83,4.34c-.68,0-1.64-.44-1.05-1.07a1.34,1.34,0,0,1,1.47,0A.61.61,0,0,1,112.2,73.06Zm4.69-.65c-.37,0-.82.51-1.31.51s-2.31.35-2.22-.93c0-.49,3-.47,3.67-.12S117.27,72.37,116.9,72.41Zm2.52-7.53c-.28,0-.89.58-1.38.54s-.68-.4-1-.44c-.86-.08.35-.64,1.07-.64a9.94,9.94,0,0,0,1.31-.1C119.77,64.23,119.7,64.86,119.42,64.88Zm.54-10c-.58,0-.77.28-1.26.44s-2.38.56-2.87,0,.49-.54,1.33-.56.7-.49,1.19-.49a2.65,2.65,0,0,0,1.31-.49c.28-.19.86,0,1.14.33S120.54,54.91,120,54.93Zm9.16,14.73c-.65.13-.58.46-1.21.78s-1,0-1.05-.39,1.5-1.12,1.87-1.32C129.53,68.3,129.77,69.53,129.11,69.66Zm2.78-2.58c-.68,0-.93-.7-1.05-1.21s-.65-.82-.61-1.51.17-1.45.61-1.55c1.17-.26,2.59,2,2.87,2.62a2,2,0,0,1,.28,1.39C133.9,67.36,132.57,67.12,131.89,67.08Z"/><path class="cls-1" d="M144,68.64c-.61,0-.63-.14-.61-.45s.63-.7.91-.49.26.42,1,.44,1.19,0,1.05.26-.49.18-.89.24A7.94,7.94,0,0,1,144,68.64Z"/><path class="cls-1" d="M148.34,68.68c.35,0,1.35-.19,1.49,0s.4.43,0,.47a7.3,7.3,0,0,1-1.24,0C148.22,69.13,148.34,68.68,148.34,68.68Z"/><path class="cls-1" d="M148.32,76.33c.29-.25.61-.37.86-.23s.58.7.86.68.21.49-.49.42a10.11,10.11,0,0,0-1.42,0C147.75,77.19,148,76.57,148.32,76.33Z"/><path class="cls-1" d="M137.52,55.89a2.57,2.57,0,0,0,1.66,0c.21-.09.47-.51,0-.54s-.84.16-1.12,0S136.7,55.44,137.52,55.89Z"/><path class="cls-1" d="M141,54.91a7.33,7.33,0,0,1,1.66-.54l6.59-.14c.42,0,.58.58,0,.58a47.48,47.48,0,0,0-5.49.26c-.54.21-.65,1-1.49.79s-1.07-.57-1.26-.56S140.71,55,141,54.91Z"/><path class="cls-1" d="M122.69,41.9a.71.71,0,0,1,1-.33c.42.21.23.37,0,.61s.18.56-.35.54S122.48,42.43,122.69,41.9Z"/><path class="cls-2" d="M242,21.31c.27-1.33,3.16-.19,5.49-.56s6.42-1.4,7.82-1.68a6.26,6.26,0,0,1,3.26,0c.65.28,1.3-.62,3.16-.87s5.12-1.46,6.33-1.46,2.33.09,3.16,0,3.44-.74,5.12-1.21,6.79-1.49,7.91-1.58,2.89.47,3.26,0a7.81,7.81,0,0,1,4.37-1.58,19.6,19.6,0,0,0,4.09,0c2.61-.28,7.26-.28,8.56-.74a17.58,17.58,0,0,1,4.75-1.12c1.3,0,3.16.56,4.47.56s3-1.21,3.91-1.21,2,.7,2.84.6,2.33-.47,3.07-.6,2.65.74,3.3.65,1.91-1.68,2.37-2.23.65.28,2.19-.33,3.12-2.06,4.23-2.15,3,.1,3.35.94a15,15,0,0,1,.37,2.7c.19.7,1,1.86,1.12,2.79s-.37,4.33-.51,6.84-.65,3.26-.65,4.09-.14,2-.19,2.79.09,3.3.09,3.72-.56.56-.65,1.81,0,8.66,0,10.28,1.51,6.65,2,8.89a37.46,37.46,0,0,1,.5,8.42c-.19,2.19-1,13.54-1,15.08s-.09,4.56,0,6.42a73.42,73.42,0,0,1,.47,7.49c-.14,1.49,0,4,0,5.86a36.91,36.91,0,0,0,1,6.89,6.43,6.43,0,0,1,.33,3.3c-.28.56-1.07.42-1,1.12s2.19,1.49,2.33,3.16-.14,3.12,0,4,.84,1.3.7,1.81-1.26,3.07-1.16,4.23,1.26,4.42,1.4,6.47.42,4.23.51,6a30.82,30.82,0,0,0,.33,3.72c.14.7,0,1.58-.6,1.54a8.82,8.82,0,0,0-1.91,0,4.25,4.25,0,0,1-2.28-.37c-.47-.33-1.12-.88-1.68-.88s-.74-.19-1.12-1a11.53,11.53,0,0,1-.47-5.3c.42-1.26.79.37.93-.09a2.86,2.86,0,0,0,.33-2.51c-.47-1.49-1-2.93-.74-3.63s1.16-3.82,1-4.93a4.52,4.52,0,0,0-2-2.84c-1-.6-1.44-4.51-1-4.89s.7,0,.84.51,0,1.86.42,1.81.14-1.3.65-1.91a5.38,5.38,0,0,0,1.21-3.07c.09-1.4,0-2.42-.65-2.37s-2.75.6-3-.33-2.14-4.47-2.33-8.66-.09-5.77-.28-6.75a3.94,3.94,0,0,0-3.54-2.93c-2,0-3.35,2.14-3.07,4.28s1.63,6.93,1.68,8.66.74,4-.37,5.12-1.3,1.4-2.33,1.26-3.12-1.26-4.47-1-2,.28-2.33.84-1.4,1.35-1.44,2.28-.37,2,.6,3.12a4.54,4.54,0,0,1,1.07,3.3c0,1-.65,4.51-.6,6s2.14,8.7,2.14,11.31-.09,5.72-1.3,6.61a2.88,2.88,0,0,1-2.7.47,28.37,28.37,0,0,0-4.61-.09c-1.58.14-3.21.23-4.33,1.07s-4.23,1.3-4.75,1.35-.84.65-.47,1.4,1.21,3.58,2.09,3.72,1-.79,1.58-.93,1.07-.65,2-.6,1.49.74,2.47.93,1.16,2,1,2.56a4.2,4.2,0,0,0,.33,2c.09.28-.09,1.4-.74,1.63a21.61,21.61,0,0,0-3.49,1.12c-.7.47-2.42.6-1.81,1.54s1.07,1.91,1.91,1.77,1.12-.56,1.81-.33.84,1,1.21,1,.7,0,.79.33a10.15,10.15,0,0,1-.09,1.58c0,.56.7,1-.14,1.63s-1.81,1.68-2.56,1.68-1.68-.33-2,0-1.12,0-.88.93,1.3,2.28,2.28,2.37a2,2,0,0,1,1.72,1c.19.42.79.19.93,1.3a10.11,10.11,0,0,0,.7,2.84,4,4,0,0,1-.33,3.21c-.6.79-1.91,3-1.68,4.09s.93,1.91,1,3.44.33,3.49.33,4.37-.33,1.58-.09,2.23.37,1.68.84,2,.6.28.6,0a9,9,0,0,1-.42-3.63,43.35,43.35,0,0,0,.42-6.24c0-1.16,0-.56.6-.47s.6-.37.6-1.07.51-.79.23-1.72-.93-1.58-.74-2.33.84-4.19,1-5.21.84-4.23,1.77-4.19,1.12.65,1.81.65,1.21-.28,1.54,0,.37,1.3.65,1.26.7-.84.93-.56a2.19,2.19,0,0,1,.23,1.81c-.23.74-.65,3.82-1,4.33s-1.72,3.3-1.63,4.79.79,4.56.84,5.17-.14,1.35-.09,1.68a22.77,22.77,0,0,1,.33,2.65c0,.79,1.49,10,1.86,11.21a20.25,20.25,0,0,1,.65,4.84c0,1.4.19,2.93-.51,4.19a13.18,13.18,0,0,0-1.58,4.28,3.94,3.94,0,0,1-.47,2c-.37.88-1.77,3.07-1.72,4.28s.42,2.84.19,3.77-1.26,2.56-1.26,3.63a16.66,16.66,0,0,1,0,3.72,6.85,6.85,0,0,0-.28,2.14c0,.56,0,1.44-.88,1.4s-3.86-2.33-5.21-2.19-2.37,1.81-3.44,1.91-2.14,1.16-3.12,1.07a31,31,0,0,0-3.21-.6c-.6.09-1.54.52-2.33.61s-2-.09-2.56,0-1.35.37-1.72.37-2.33,0-3.07,0-1.3.37-2.23.42a21.87,21.87,0,0,1-3.91,0c-1.21-.19-3.72.51-4.28.56s-.88-.37-1.3-.37a4.67,4.67,0,0,0-1.4,0c-1.26.14-4.56.74-5.07.74a19,19,0,0,1-3.26,0c-.42-.19-1.77-.19-2,.37s-.47.65-1.16.47-1-.84-1.68-.88a1.94,1.94,0,0,1-1.72-1.63,8.56,8.56,0,0,1,0-2.23c0-.74-.37-1.58-.28-2.09a5.24,5.24,0,0,0,.14-2.47c-.28-.84-1.12-2.14-.84-3.49a29.71,29.71,0,0,0,.33-4.89,25.48,25.48,0,0,1,1-5.63,35.64,35.64,0,0,0,1.16-7.07c0-1.26-.33-5.49-.33-7s-.37-6.33-.23-7.72-.37-3.63.14-3.72,1-2.09,1.58-2.7a4.34,4.34,0,0,0,1.26-2.47c0-.93.88-1.72.79-2.75s-.79-3.63-.65-4.51-.6-1.58-.23-2.33.33-2,.7-2.23.88-.23,1.12-.7,0-1.21.79-1.12.88,1.35,1.21,1.54.47.42.47,1.21a9.89,9.89,0,0,1-1.07,3.26,9.78,9.78,0,0,0-.93,3.63,9.52,9.52,0,0,0,1.07,4c.47.56.93,1,.93,1.72a7.93,7.93,0,0,0,.51,3.12c.47,1,.47,1.86.79,1.81s.33-1.68.37-2.19,0-3.12.47-3.68.47-1.44.88-1.16.51.47.51,1.21a25,25,0,0,1,.28,3.3,14.66,14.66,0,0,0-.37,3.82c.14,1.4,1,3.16,1,4.51s-.33,2.42,0,3.63A7.15,7.15,0,0,1,275,200a4.9,4.9,0,0,0,.23,2.33c.33.65.93,1.12.7,2a13.3,13.3,0,0,0-.51,4.09,21.45,21.45,0,0,1,0,2.93c0,.84-.79,3-.51,3.63s.09,1.21.51.84.47-.93.7-2.33.28-1.54.6-3.72,0-3.77.42-4.7,0-1.91.19-3.12a26,26,0,0,0,.14-4.84,26.42,26.42,0,0,1-.14-4,6.39,6.39,0,0,0-.19-2.89c-.33-.42-.74-.42-.84-1.16a6.18,6.18,0,0,1,.14-2.47c.19,0,.19,2.19.47,2.19s.28-1.54.14-2.33.09-3.35.47-3.44.28,1.77.84,1.72a1.47,1.47,0,0,0,1.16-.93c0-.28.14-1.35.28-1.35s.28.23.28,1-.47,3.35,0,3.49.79-1.44.65-2a11.64,11.64,0,0,1,.47-3.12c.23-1.21.88-.93,1-2.51s.09-2.7-.47-3.07-.6-.42-.6-.88A6.15,6.15,0,0,0,281,174c-.09-.37-.51-1.26-.56-1.58a3.56,3.56,0,0,1,.7-1.81c.37-.42.37-2.19,1-2.33s.93.42,1.07.14.37-1.4,1.21-1.4a1.46,1.46,0,0,1,1.4,1.4,11.37,11.37,0,0,1-.37,2.37c-.09.79-.47,1.21-.56,2s-1.44,3.44-1.58,4.42a34.2,34.2,0,0,0-.09,3.68c0,.65.74,2.33.74,4.14s-.14,3.72-.23,5,.65,3.4,1.12,3.4,1.07-1.72,1.07-2.7-1-2.56-.6-3.12a4.17,4.17,0,0,0,.79-1.81c0-.6.6-.65.88-1.3s-.56-1.63.14-2.23,1.35-.7,1.3-1.91a20.57,20.57,0,0,1,.33-3.44c.09-.65-.37-3.4.37-4.56s0-4.19,1.16-4.37,1.58.28,1.54,1.4-1.16,3.16-1.44,4.23,0,2.14-.28,2.7a4.2,4.2,0,0,0-.7,1.91,17.1,17.1,0,0,0-.6,3.54c0,1.54,0,4,.6,4s1.12-.93,1.12-1.72a11.39,11.39,0,0,1,0-2.61c.19-.28,0,1.35.56,1s1,.23.84-1.4.56-1.72.65-2.93-.37-1.12-.6-2.51a9.25,9.25,0,0,1,.37-3.63,19.52,19.52,0,0,0,.74-3.49c0-.74.37-.33.84-.23s1.3-2.42,2.56-2.47,1.81,0,3.35-1.54.65-2.7.09-2.79-2.42.28-3.58.33-1.92,0-2.17-.79-1.14-2.75-.44-3.07.79.09,1.44-.84a16.67,16.67,0,0,1,1.72-2c.42-.47,1.63-2.19.37-2.23s-2.7.19-3.3.19-.23-.79-1.44-.7-.51.93-1.12.93a10.08,10.08,0,0,1-2-.33c-.65-.14-1.3,0-1.35-.33a24.06,24.06,0,0,1,1-2.19c.28-.79.74-2.51,1.58-2.75s.33,1.12,1.16,1,1.31-1.07,1.58-1.26.79-2.09,2.19-2.47,3.35-1.58,3.35-3-.28-2.51-2.33-2.47-4.19.79-5.63.88-6.93.28-7.72.42-2.14-.37-3-.42a34.83,34.83,0,0,0-6.1.65c-1,.33-4.89.19-5.49.65s-1,.79-1.63.51a6.38,6.38,0,0,0-2.51-.7c-.6.09-2.42,1.16-3.54,1.07s-1.58-.33-2.14-.09a3.72,3.72,0,0,1-1.77.19c-.65,0-1.63-.19-2.51-.19a9.86,9.86,0,0,0-2.51.88c-.56.14-.65-.23-1.49-.23a7.43,7.43,0,0,0-2.23.74c-.74.23-.88,1-1.4.65s-2.28-4.42-2.09-7.91.14-3.77-.33-5-1.44-3.82-.79-6.1a10.3,10.3,0,0,0,.23-4.65,52.72,52.72,0,0,1-.47-5.77,4.6,4.6,0,0,0-.33-3,35.31,35.31,0,0,1-2.23-10.05c-.19-4,0-10.19-.28-12.28a53.17,53.17,0,0,1-.23-11.12c.42-4.75,1.16-12.38.74-14.7s-.65-8.19-1.44-9.91-1.4-8.89-.56-11.35-.23-5.58.23-8.05.6-11.68,1.21-12.33S241.94,21.78,242,21.31Z"/><path class="cls-2" d="M246.81,149.24a4.63,4.63,0,0,0,.67-1.4c.07-.35.35.74.7.7s.56.88,1,.7,0-1.75.91-1.68a1.53,1.53,0,0,1,1.44,1.12c.25.53-.18,1.33,0,2a11.67,11.67,0,0,1,.56,2.31c0,.67-.35,1.61-.88,1.61a1,1,0,0,0-.95.46,1.69,1.69,0,0,1-1,.63c-.42.14-1.16,0-1.44.42s-.49,1.12-.77.63-.46-1.23-.77-1.82a14.19,14.19,0,0,1-.39-4.38C246,149.94,246.39,149.87,246.81,149.24Z"/><path class="cls-2" d="M256,148.75c.58-.22.95-.53,1.23-.53s.53.21.84.26.49-.89,1.23-.75,1,1.82,1.37,1.89.6-.28.77,0,.21,1.82.49,2.24.88,1.26.67,1.54-1.05,1.19-1.26,1.51-.32.63-.74.42-.53-.49-1-.25-.25.74-.91.63-.81-.88-1.51-.88-.53,0-1.16-.67a3.47,3.47,0,0,1-1.19-2.28c.07-.7-.14-.77-.42-.95s.56-.74.56-1.23S255.63,148.87,256,148.75Z"/><path class="cls-2" d="M248.5,158.49c-.46.07-.25.74-.39,1.05s-.63,1.23-1.05,1.05-.49-.39-.67-.14.21.81.25,1.16-.25,1.51.46,2.07.95.84,1.4.56a4.7,4.7,0,0,1,1.33-.49c.49-.14,1.16-.88,1.72-.88s.81.77,1.16.6a1.3,1.3,0,0,0,.42-1.33c-.18-.32-.7-.74-.7-1.4s-.07-1.33-.67-1.58-.95-.74-1.33-.35.15,1.12-.66,1.12S249.16,158.38,248.5,158.49Z"/><path class="cls-2" d="M255.75,159.68a4.32,4.32,0,0,0,0,2.07c.18,1.16.42,1.4.95,1.23s.91-.56,1.44-.14.25.88.95.84,1-.7,1.58-.7.7,1.16,1.19.7,1.44-.42,1-1.61-.6-1.4-.88-2.1-.74-1.2-2.1-1.48a4.49,4.49,0,0,0-2.73.46c-.63.18-.6-.21-.95,0S255.75,159.68,255.75,159.68Z"/><path class="cls-2" d="M247.65,168.51c.28,0,0,.84.56,1.19a1.64,1.64,0,0,1,.77,1.44,7.29,7.29,0,0,1-.45,2.87c-.39.56-.6,1.58-1.51,1.72s-.81-.28-.46-1,.42-1.33,0-1.72-1.26-.39-1-1.05.7-.81.95-.6.39.81.56.39a6.75,6.75,0,0,0,.16-1.54C247.34,169.53,247.2,168.58,247.65,168.51Z"/><path class="cls-2" d="M250,168.86c-.43,0-.63.18-.67,1.44s0,1.86,0,2.52a6.68,6.68,0,0,1-.39,1.79c-.14.35.4.14.78-.14a1.74,1.74,0,0,0,1-1.65C250.84,171.59,251.51,168.72,250,168.86Z"/><path class="cls-2" d="M257.08,169.53c-.37.14-.46.28-.53,1.09a4.16,4.16,0,0,1-.21,1.52c-.18.27.14.76.37.62s.19-.95.37-1.37S257.92,169.21,257.08,169.53Z"/><path class="cls-2" d="M258.76,168.68a1.84,1.84,0,0,0-.49,1.58c.07.77.37,1.3.17,1.56a.75.75,0,0,0,.07,1.14c.5.42.81-.22,1-.83s.67-.82.63-1.41S260.44,167.84,258.76,168.68Z"/><path class="cls-2" d="M265.94,158.84c.19.42-.95,1.26-.74,1.89a3.66,3.66,0,0,0,1.93,1.61c.63.21.39,1.44,1.4,1.26s1.3-1.65,1.89-2,1.37,1.26,1.89.81a2.47,2.47,0,0,0,.84-1.89c0-.84,0-1.86,0-2.35a.85.85,0,0,0-1.26-.56c-.6.28-.46,1.4-1.37,1.12s-1.16-1.79-2-1.54-1.26.74-1.75.74S265.38,157.61,265.94,158.84Z"/><path class="cls-2" d="M274.74,157.75c.4-.49.7-1,1.4-.39a1.55,1.55,0,0,1,.6,1.61,19.46,19.46,0,0,0-.56,1.93c-.07.7-.14,1.09-.42,1.09s-.7-.67-1-1.3A2.85,2.85,0,0,1,274.74,157.75Z"/><path class="cls-2" d="M280.94,157.54c.62,0,1,1.47,1.51,1.26a2.38,2.38,0,0,0,1.16-1.26c.14-.46,1.47-1.09,1.75-1.05a2.47,2.47,0,0,1,1.65,2,4.55,4.55,0,0,1-.49,2.11,4.05,4.05,0,0,1-.88,1.4c-.35.49-1-.11-1.66,0s-.48.39-1.14.2-.84-1-1.4-.93-1.26.35-1.47-.39S279.12,157.65,280.94,157.54Z"/><path class="cls-2" d="M288.19,158.8c.32.09.67.47.46.57s-.95.17-.46.76.63.9.39,1a.7.7,0,0,1-.91-.72C287.67,159.61,287.32,158.56,288.19,158.8Z"/><path class="cls-2" d="M289.73,158.77c0-.42,1.78-1,2.24-1s.49,1.09.53,1.44.6,1.64.32,1.94-.15,1.28-.85,1.16a20.31,20.31,0,0,1-2.24-1,1.13,1.13,0,0,1-.6-1.23C289.28,159.65,289.73,159.19,289.73,158.77Z"/><path class="cls-2" d="M275.12,167.6c-.44,0-1,.63-1.26,2.14a17,17,0,0,0,0,3c-.11.75-.49,1.62-.1,1.73s.45-.89.7-1.41a32,32,0,0,0,1.33-4.9C275.72,167.81,275.54,167.56,275.12,167.6Z"/><path class="cls-2" d="M271.58,168.5a1.4,1.4,0,0,0-.95,1.17c0,.53.14,1.25.14,1.47a6,6,0,0,0-.14,1.64c.14.36.1.78.45.71s.7-1.23.81-2S272.43,168.49,271.58,168.5Z"/><path class="cls-2" d="M280.2,147.87a1.31,1.31,0,0,0-.7,1.51,14.78,14.78,0,0,1,.33,1.93,1.79,1.79,0,0,0,.54,1.54c.67.84.91.32,1-.25a4.62,4.62,0,0,0-.14-2,16.49,16.49,0,0,0-.35-2.08C280.66,148,280.52,147.71,280.2,147.87Z"/><path class="cls-2" d="M282.06,148a11,11,0,0,1,.28,1.37c0,.77,0,1.19-.14,1.44s.11,2,.77,2.14,1.51.88,2.24.81a2.45,2.45,0,0,0,1.79-2.42c-.22-1.09-.88-2.84-1-3.33s-1.05-1.51-1.75-1.16-.56.95-.56,1.47-.18,1.26-.53,1.3-.32-1.61-.7-1.61S282.17,147.63,282.06,148Z"/><path class="cls-2" d="M275.12,146.75a2.74,2.74,0,0,0-1.26,1.65,4,4,0,0,1-.67,1.84,3.74,3.74,0,0,1-.76-2c-.07-.84-.47-1.12-1.08-.91s-1.24.26-1,1.18.1,2,.28,2.71,0,1.26-.32,1a4.74,4.74,0,0,1-.66-2.17c0-.67-1.09-2.28-1.51-2.1s-1.23,1.4-1.54,1.75-.11,1.37-.14,2-.18,1-.42.84-.14-1-.35-1-.75.17-.48.7,1.08,2,1.88,2.28,1,.67,1.68.53,1.65-1.75,2.38-1.77.47.47,1,.26.08-1.2,1.24-1.3,1.61.81,2.21.63a1.53,1.53,0,0,0,.88-1.47c0-.6-.49-2.31-.39-2.8S275.86,146.24,275.12,146.75Z"/><path class="cls-2" d="M315.74,154.73c-.51.16-1.91.46-1.77,1.77s1.49,3.91,2.79,4.14,2.28,0,2.56-.69,1.49-2,1.3-2.52-.33-1.26-.65-1.16.14,1.91-.65,1.81-.7-.84-.51-1.59-.33-1.16-.88-1-.79.6-1.35.28S316.31,154.55,315.74,154.73Z"/><path class="cls-2" d="M312.3,148.12a2.64,2.64,0,0,0,1.91,2.79c1.58.51,2.19.84,2.51,1.26s1,0,1.26-.42a3.8,3.8,0,0,0,.7-2.19c-.09-.93-.74-2.7-.7-3.4s0-1.3-.47-1.16-.79.7-1.12.74-.22-.79-.9-1.16a1.82,1.82,0,0,0-1.94,0,2.53,2.53,0,0,0-1,1.86C312.48,147.09,312.3,146.72,312.3,148.12Z"/><path class="cls-2" d="M328,155.94c-.47.06-.79.6-.7,1.26s.42,2.37.7,2.42.65-.7.65-1.44S328.72,155.84,328,155.94Z"/><path class="cls-2" d="M331,155.38a1.23,1.23,0,0,0-.42,1.54c.19.42-.23,1.63.42,1.63s1.12-.27.93-.83S331.7,154.91,331,155.38Z"/><path class="cls-2" d="M327.27,165.85a1.58,1.58,0,0,0-1,1.49,5.62,5.62,0,0,1-.51,2.23c-.28.33,0,1.44.51,1.54s.94-1.07,1-1.63.25-1.21.3-2S328.09,165.66,327.27,165.85Z"/><path class="cls-2" d="M330,165.15c-.37,0-.42.47-.47,1.72s0,.87-.37,1.6a5,5,0,0,0-.74,3,4.76,4.76,0,0,1-.49,2.75c-.34.65.08,1.68.22,2.47s-.32,3.63.47,3.63.83-.56.79-1.91a29.19,29.19,0,0,1-.19-3.86c.14-1,.95-3.16,1.19-4.37S331.56,165,330,165.15Z"/><path class="cls-2" d="M327.56,180.27c-.39-.07-.23.88-.6,1.49a7,7,0,0,0-.65,3.35c0,1.35.46,5.63,0,5.72s-.93-1-1-2.19.09-4.84-.37-4.79-.56.94-.56,1.7-.28,3.74,0,4.39.84,1,.7,2a12,12,0,0,0-.19,5.49c.6,2.75.93,2.89.47,4.19s-1.55,5.68-1.1,7.59,1.47,3.77,1.43,4.93-.47,2.84-.47,4.33,1.07,4.79,1,5.63-.56,2.93.19,3.12,1.16-.93,1.16-1.72a25.93,25.93,0,0,1-.23-4.56c.23-1.44-.09-5,.23-5.82s.74-5.44,1.4-7.49a13.09,13.09,0,0,0,.6-4.61c0-.79.49-3.28.37-4.75-.09-1.21-.23-3.91-.23-5.54s-.65-2-1-3.86a25.39,25.39,0,0,1-.47-5.26C328.26,182.32,328.12,180.37,327.56,180.27Z"/><path class="cls-2" d="M341.38,153c.06-1.16.56-1.77.09-2.42a3.51,3.51,0,0,0-2.61-1.26c-.93,0-1.12-1.4-1.3-2.47s-.09-2.42.28-2.61.79,2,1.44,2,2.79-6.37,3.63-6.19c1.68.37,2.09.6,2.37,2.37s.6,5.63.6,6.79-.7,2.39-.51,3.06.84,3.53,1,4.59.33,3.22-.28,3.79a2.37,2.37,0,0,0-1,2,29.74,29.74,0,0,1,.93,4.19c.09,1.54-1.16,6.42-1.81,8.38a37.77,37.77,0,0,0-1,9.12,62.41,62.41,0,0,0,1,7c.28,1.44-.14,2.84,0,4.37a27,27,0,0,1,.37,3.54c0,1.26-1.26,6.51-1.26,8.52a12.34,12.34,0,0,1-.6,4.14,20.73,20.73,0,0,0-1.07,7c.14,3.21,1.54,5.3,1,8.21s.33,4-1.21,4.26-2.75-.84-3.68-.93a2.88,2.88,0,0,1-2.51-3c.09-2,.51-2.79.37-3.72s-1.54-1.26-1.58-3.44a33,33,0,0,1,.51-8.28c.7-3-.46-3.68-.56-4.93s1.3-5.54.93-7.35a39.72,39.72,0,0,1-.19-8.14c.19-1.81.6-2.19.37-3.35a23.84,23.84,0,0,1-.33-7.49c.47-2.84.19-4.75.84-7s1.58-5,1.58-6.65.14-2.7.42-2.89.7.84,1.49.47a7.7,7.7,0,0,0,2.47-4.06,1.46,1.46,0,0,0-1.37-1.52c-.77,0-1.88-.65-1.88-1.16s-.56-3.86,0-3.77.65,1.26,1.16,1.26S341.34,153.93,341.38,153Z"/><path class="cls-2" d="M328,110.49c-.2.12-.14.63-.28.81a1.36,1.36,0,0,0,0,1.05c.14.28-.28,1.19.28,1.23s.91-.35.74-.81a4.85,4.85,0,0,1-.35-1C328.31,111.5,328.31,110.28,328,110.49Z"/><path class="cls-2" d="M247.86,182.45c-.38,0-.76,1-.61,2s-.09,1.12-.27,1.12-.32-.42-.32-.91a1.69,1.69,0,0,0-.49-1.26c-.35-.35-.49-1.33-.81-1.16a1.5,1.5,0,0,0-.42,1.4,3.17,3.17,0,0,1-.18,1.75c-.21.35-.49.49-.7.39s-.35-.84-.6-.7-.46.25-.46,1.09a22.29,22.29,0,0,0,0,4.06c.25,1.37,1.3,4.55,1.3,5.5s-.07,3.36,0,4.73.6,2.7.49,3.71-2.87,14.54-2.87,17.13.81,5.5,1.23,5.89.77.39.77,1.19-.21.67-.63,1.19a3.07,3.07,0,0,0-.32,1.89c0,.49,0,3.12.6,3.47s.81.39,1.09.21.46-.21,1.09-.14.49-.67,1.3-.77,1.44.63,1.58-.35-.35-1.93,0-2.84a4,4,0,0,0,.32-2.24c-.07-1-.56-2.1-.28-2.66s.7-.32.81-1.23.11-3.57.28-4.66a40.89,40.89,0,0,0,.6-5.26,45.66,45.66,0,0,1,.32-5.57c.14-.95.28-2.42,0-2.63s-.63,1.37-1,1.58.28-.88.42-1.58-.14-1.19.11-2.07a12.49,12.49,0,0,0-.32-4.38c-.32-1.54,0-2.24.11-4.17s-.53-2.7-.74-3.61-1.05-2.28-.49-3.68a11.18,11.18,0,0,0,.22-4.77C248.81,183.4,248.67,182.42,247.86,182.45Z"/><path class="cls-2" d="M251.09,218.93c0,1-.95,2.35-.49,4.38s1.33,2.17,1.44,3.33-.53,2.07-.49,3.22.25,4,1.72,4.41,1.89,2,2.87,1.61,2.63-.53,3-1.33a26.43,26.43,0,0,0,.63-2.7,3,3,0,0,0,0-2.66c-.53-1.51-.81-2.28-.56-3.19s1.05-2,.86-3.08-1-4.2-.58-5.26.44-3.19.61-4.38a44.88,44.88,0,0,1,.72-5.54c.35-.84,0-1.23.35-2s.74-1.65.39-2.14a1.16,1.16,0,0,1-.21-1.19,1.05,1.05,0,0,0,.18-.95,6.68,6.68,0,0,1-.53-3c.14-1.33.49-2.17.07-3a9.74,9.74,0,0,1-1.09-2.8c-.28-1.3-1-3.61-1-4.24s.14-1.65-.53-1.93a3.07,3.07,0,0,1-1.3-2.42c.11-.67-.07-1.82-.42-1.75s-.58.39-.64,1.19a2.75,2.75,0,0,1-.41,1.4c-.18.32.14.77-.18,1.05s-.18,1-.18,1.72-.25,1.65-.56,1.65-.42-.42-.32-.88a11.77,11.77,0,0,0,.39-2.28c0-.74-.28-.95-.53-.74s-.18,2.07-.42,2.24-.32-.91-.56-.63,0,1.12,0,1.82a4.07,4.07,0,0,1-.07,1.82c-.28.84-.18.63-.11,1.79s0,3.19,0,4.94.74,4,.46,5.75-1.05,6.9-1.26,8.3S251.09,216.83,251.09,218.93Z"/><path class="cls-3" d="M478.34,34.42c-1.12.25-3.92.53-3.22.91.53.29,2.84-.32,3.4-.6s3-.56,2.56-.67A9.2,9.2,0,0,0,478.34,34.42Z"/><path class="cls-3" d="M599.64,123.22a16.74,16.74,0,0,0-.28-3.72c-.19-1-2.19-8-3.3-9.45s-2.79-4.79-2.79-5.68-.6-4.89-.88-4.51a3.82,3.82,0,0,0,0,2.33c.19,1,.88,5.44,1.58,6.1s-.28,1.26-.47.42-1.35-3.86-1.44-4.61a5.08,5.08,0,0,0-.88-2.33c-.37-.33-.65-2.28-.7-3.16A96.61,96.61,0,0,0,588.9,89c-.37-.84-.84-.19-.84.28s-.6.12-.74-.68-1.12-4.62-1.3-6.25a109.71,109.71,0,0,0-5.54-16.47c-2-4-1.86-4.23-1.35-3.82s1,2.51,1.12,1.77.37-1-.47-1.92S578.15,59,577,57.66s-3.16-3.49-3.72-4.09-.14-1.21.28-.7a8.48,8.48,0,0,0,1.35,1.26c.47.37.28-.42,0-.7a14.36,14.36,0,0,1-2.19-2.84c-.56-1.12-2.14-2.14-3-2.84s-5.17-5.68-6.38-6.1-3.12-2.23-2.65-2.23,1.21.56,1.16.23-.88-1.12-.19-1.81.93-.14,1.44-1.07a1.82,1.82,0,0,0,.33-1.54.91.91,0,0,1,.28-.88c.28-.28,1.49-1.07.47-1.49S556.83,29,556.6,28s-.23-1.63-1.35-1.91-1.72-.56-2.79-.74-1.54-1.3-2-1.07.09.42-.84.28a11.41,11.41,0,0,1-2-.31c-.56-.2-1.91-.62-2-.34s.79.88.37,1.21-1.58.51-1.91,1.21-1.21,2.14-1.91,2-4.89-2.33-6-2.47-3-.56-2.33-.28,2.56,1.21,1.49,1.3a7.85,7.85,0,0,1-3.12-.23c-.51-.28-.23-.23-1.21.09s-.28.93-1.49.88-2-.42-2.37,0,.47.6.33,1.26-.28,1.07-.84.93,1,.84.88,1.49-1.16.42-1.3.84,1,1.16.23,1.16-1.21-.6-1.21-.23,1.35.65,1.16,1-.88.37-1.16.37,1.49.79,1.16,1.3-2.47-.42-2.75,0,1.07.37,1.81,1.3.65,1.58-.28,1.77-2-.09-2.56.42-1.16.7-.14,1.44,1,1.72.33,2.19-2.23,2.33-3.3,2.09-.51.19-.28.47.19,1.26-.6,1.3-1.4-.09-.74.47,1.35,1.12.84,1.68-1,1.58-1.63,1.72.56.79,1.49,1.16,1.49.6.28.79-2.23-.23-2.56.42,1.49,1.44,1.16,2.09-.88.14-1.4.42-1,1.16-1.44,1.3S514,58.12,514,59s-.37.42-.7,1.16.33,1.44,0,2.56-1.07,2.75-1.77,2.47-1.3-.79-1.3-.09,1.81,1.21,1.4,1.68-.7.33-1.49.37-.84.7-1.07,1.12-.19,1.3-.47,1.72,0,1.54-.74,1.54-1.12.74-1.58-.09-1.16-.88-.65-1.68A12.39,12.39,0,0,0,507,67.1c.37-1,1.12-2.7.65-3.16s-.47-.28,0-.93a3.86,3.86,0,0,0,.65-2.14c0-.79,1.63-2.79,1.63-2.79a4.83,4.83,0,0,0,.84-2.79c0-1.72.93-.51.51-1.68s-.28-.84.09-1.63.93-1.49.79-2.09a2.69,2.69,0,0,1,0-1.91c.33-.56.19-.6-.19-1.07s-.33-.93.33-1.21.56-.74.56-1.3a3.38,3.38,0,0,1,.65-2c.51-.7,1.07-.6.84-1.44a3,3,0,0,1,.09-2.47c.47-.6.28-1.44.28-2.51s0-2.33.42-2.84a6.93,6.93,0,0,0,1.12-1.68c.14-.37.19-1.63.47-2.47s1-.6.84-1.58-.6-2,.14-2.37.7-2,.79-2.47,1-1,.65-1.68a5.23,5.23,0,0,1-.56-3.12,11.07,11.07,0,0,0,.19-2.42,6.39,6.39,0,0,0-.09-2.28c-.28-.47.14-1.07-2-1.12s-6.24-.84-7.82-.7-3.21-.36-3.77,0,.79.62,0,1-3.3.23-2.33.42,2.65.74,2,1.21-2.09.51-1.35.7,1.4.42.79.56.19,1.21-1.21,1.12-.88,1-2,1.12-3.58-.56-2.37.19,2.14.7,1.16,1.21-5.4,0-5.77.42.37.65-.28,1.16.19.84-1.81.84-5.3.65-8.05.7-7.82,1.21-9,1.12-1.26-.47.6-.74,5.72-.7,6.28-1.12-1.35,0-2.79,0-6,.79-7.07.93.42-.65,1.81-.7,8.28-1,8.79-1.16,1-1-.51-.74-12.24,2-12.84,2.37-3.58.09-4.79.47-4.51,1.12-5,.93,2.37-.7,3.58-1.16-.74-.33-2,.14-9.49,3.21-10.47,3.77-2.84.6-1.4,0,8.33-2.84,8.79-3.21.19-.6-1.81-.23-4.28,2-5.58,2a4.22,4.22,0,0,0-2.42.51c-1.12.51-2.42.42-1.49,0s3.3-1.81,4.14-2.14,1-1.3,1.72-1.49,5.07-1.49,3.77-1.58-6.84,2.28-8,2.65-.47-.42.09-.6,4.75-1.21,5.35-1.86,2.89-1.35,1.58-1.26-1.86.42-3.91,1.16S446,22.43,445,22.57s-1.21-.51-.23-.88,5-1.49,5.91-2.09,3.07-.79,3-1.21-.42-.7-1.58-.28-6.38,2.37-8.05,3.21-9.68,4.79-10.94,5-3.91,1.68-5,2-4.7,3.12-6,3.54a18.85,18.85,0,0,0-4,1.63c-1,.65-11.59,9.82-11.59,9.82a2.89,2.89,0,0,1-.65,1.68c-.65.79-.84,1.91-1.91,2.79A149.65,149.65,0,0,0,393.55,59.8c-.93,1.58-2.42,2.33-2.89,3.3s-7.86,14.7-8.47,16-2,5.12-2.42,5.58-.42-.6-.09-1.07-.09-1.54-.51-.37-3.08,8.89-3.58,10.52c-1.41,4.53-3.26,15.34-3.16,16.74s.74.22.74,1.55-.65,9.25-.37,11,0,3.16,1.21,3.35,1.58,2,2,2.14.37-1.58.93-1.86a1.52,1.52,0,0,0,.93-1.4c0-.65.19-3.54.56-3.63s.42.7.47,1.07.09,2.09.6,2.33.74.37.84,1,0,2.89.42,2.89.56-.51.79,0,.19,2.47.6,2.33.42-.65.74-.65.19-.88.42-1.3.6-1.35.74-1.12a.83.83,0,0,0,.7.51,2,2,0,0,0,1.26-.6c.28-.33,1.16-.37,1.26-.51a7.9,7.9,0,0,1,.28-1.91,20.19,20.19,0,0,0,.56-2.84c.14-.47.65-4.65,1.07-4.7s.28,3.77.42,3.82.28-1.49.47-1.86.19,1.16.28,2,.14,2.47.42,2.65.51-1.72.37-2.47.14-.65.23-1.68.09-1.58.37-1.3,0,1.35,0,2,.06,3.16.12,3.21.11-1.72.2-2.47.93-1.21.93-2.19-.37-4.61.37-4.75,1.07.65,1.72.51.93-.79,1.63-.56.84.84.65,1.16-.84.84-.84,1.16-.19,2-.23,2.28.42.14.42.14,0-2.14.47-2.14.2.47.26,1-.21,6.61-.17,7,.47.7.56,1,.33.88.47.56.42-1.26.93-1.35,2.42-.51,2.79-.19.28,1.21,1.3,1.49,1.86-.09,2.14.37-.51,1.68.51,1.68.65-.93,1.72-.93,1.07,0,1.3.84.33,1.4.56,1.35.14-1.68.88-1.91,1.72-1.63,2.47-1.54.88,1,1.49,1a4.06,4.06,0,0,1,2.23.88c.47.51.6,2.28,1,2.65a5.11,5.11,0,0,1,1,1.44,2,2,0,0,1,.23,1.35c-.14.51-.7,1.16-.7,1.86a10.27,10.27,0,0,0,.19,2.7c.23.6.56,1.12,0,1.07s-.7-.56-1-1.3a7.11,7.11,0,0,1-.47-2.19c0-.56.09-1.77-.33-1.86s-.42,2-.7,2-.88.14-1.16,0,0-1.35,0-1.54-1,.23-1.4.37-.47.6-.93.74a6.8,6.8,0,0,1-1.68.42c-.51,0-.56-.47-1.07-.23s-.84.7-1.26.74-.7-.56-1-.47-1.16,1.4-1.4,1.58-.74-.33-1,.19-1,.33-1.49.65-.79-.09-1.12.09-.23.84-.51,1.07a2.68,2.68,0,0,0-.84,1.16c-.09.42.19,2.09.09,2.79s-.56,0-.93.47-.14,1.26-.56.93-.28-.65,0-1.26a2.76,2.76,0,0,0-.23-2.23c-.37-.74-1-1.77-1.35-1.58s-1.26.28-.74,1.81,1.12,3.68.7,4-1-.65-1.16-1.12-.65-1.91-.74-1.68a9.43,9.43,0,0,0,.28,2.42c.14.42-.28.33-.65.23s-.7.34-1.21.19a1.69,1.69,0,0,1-1-1.54,5.87,5.87,0,0,0-.51-2.75c-.47-.74-.84.14-1,1s-.74.19-1.49,0-1.4,0-1.4-.84-.28-1.86-.88-1.86-.51,1.91-.37,2.61a4.64,4.64,0,0,1,0,2c-.14.19-.09-1.4-.56-1.68s-.33.6-1.26.19-1.49-1-2-1.21-.47.84-1,.7a1.12,1.12,0,0,1-.88-1.16c0-.65-.42-1.16-.65-.93s-.37,1-1.07,1.16-1.35-1.16-1.49-1.49-.42,1.54-.28,1.91.37.56-.19.93-1-1-1.26-.47,0,1.12-.09,1.63,0,1.58-.47,1.58-.42-1.68-.74-1.44a3,3,0,0,0-.37,2.65c.42.88-.14.74,0,1.68a59.14,59.14,0,0,0,2.23,9.31c.93,2.23,2.47,6.42,2.79,7.35s.19-.93.51-.65.42.7.79,1.4,2.19,4.14,2.47,4.93.79,1,1,1a1,1,0,0,1,1,.65c.28.56.79,1.91,1.26,2.09s.65-.88,1.26-.47a7.92,7.92,0,0,1,2,2.79c.28.84,1.07,1.49,1.07,1s-.79-1.86,0-1.49.84,1.26,1.91,2,.84,1.12,1.16,1-.19-1.44-.28-1.81-1.44-1.77-1.44-2.14.93.23,1,.7.88.74.93.47-.79-1.35-.28-1.16.65.47,1.26,1.21.47,1.21,1.35,1.72a24.17,24.17,0,0,1,2.93,2.37c.23.23,1.12,1.68,1.63,1.68s.88,0,.84-.33-1.44-1.68-1.16-2.14.79,0,.79-.56a10,10,0,0,0-.19-1.44s1.26,1.68,1.44,1.4-.42-1.77-1-2.09,0-.93.09-1.12.19-.84.6-.84,1,.74,1.07.23-.74-1.07-1.07-1.72-2.09-2.79-1.58-3.54.88-1.44,1.54-1.16,1.3,0,1.77.51.84.09.42-.47-.93-.84-.6-1.12-.09-.79-.23-1.26-1.68-2.09-1.26-2.65,1.63-.28,1.77-.37,1,.33,1.54.28,1.12-1,1.54-.19a11.35,11.35,0,0,0,1.44,2.28c.47.47,1.3,1.81,1.77,2.42s.7.19.7-.33-.14-1.12.28-1,1.26,1.16,1.91,1.35.93.56,1.26.28.23-1.12.65-1.21a7.16,7.16,0,0,1,1.91-.47c.6,0,1,1.12,1.26,1.3s0-1.4.51-1.35.14,1,1,.88a.83.83,0,0,0,.79-1.07c0-.28-.84-2.28-.6-2.28a2.07,2.07,0,0,1,1.21,1c.33.6.19.7.93,1.07s1,.74,1.54.74a.6.6,0,0,0,.56-.84,11.31,11.31,0,0,1-.6-1.77c0-.37.62-.56.64-1s-.22-1.91.57-2a7.94,7.94,0,0,1,2.56.74,11.21,11.21,0,0,1,2.51.74c.74.47,2.65,2.79,2.93,2.75s-.51-.84-.84-1.63-.47-1.49,0-1.68.68-.09.85-.7-.57-1.21-.71-1.72-1.07-1.72-.19-2.28,1.91-1,2-1.77.19-1.35.65-1,.23,1,1.12.88,1,.19,1.44-.42.51-.79,1.12-.93.6-.37.84-.93.09-1.91.6-1.63.84,1.63,1.54,1.72-1-1.4-.28-1.4,1,.37,1.58.37.6-.14,1.12.51,2,2.65,2.51,2.33-.88-.74-1-1.49,1-.42,1.4-.14-.14-.93.28-1.35.37.37,1.3.09.88.84,1.4.56.09-.37,0-1.12-1.35-1.91-.7-2.23.65.65,1.16.7,1,.56,1.63,1,1.21.88,1.58.37.65-1-.42-1.26a1.85,1.85,0,0,1-1.44-1.54c0-.42-1-.6-.93-1.44s.51-.23.7.19,0-.56.28-.7.74.19,1,.23.65.84.79.37-.17-.93.33-1,.74.42,1.25.33.56-.09.84-.51.47-1,1.3-1,1.07-.19,1.35-.65.23-1.68.74-.88.93,1.4,1.26,1.35a5.51,5.51,0,0,1,2.47,2.23c.19.74-1.49,1.3-1.26,2s2.42,1.12,1.72,1.44a15.13,15.13,0,0,1-2.65,1.35c-1.3.42-.51,1.21-.93,2s-1.21.19-1.44.51.42.74.14,1.07-1.16.74-1.49,1.12,0,1.54-.14,2-1,.84-1.16,1.12-1.21,0-1.35.79.84,1.91.56,2.51-1.21-.19-2,0-1,.65-.51,1.44-.33,1.26-.56,1.63-1.72.28-1.72.74,1,.93,1,1.63a14.5,14.5,0,0,1-.37,2.09c0,.37-1.3,1.63-1.58,1.58s-.6-1.16-1.12-.7.33,1.4.19,2-.42,0-1,.14.51,1.54.19,1.86-1.44-.65-2-.56-.56.33.09,1,.65,1,0,1.12-1.4-.56-1.49.23,1.49,1.4,1.21,1.72-.7-.19-1.49,0a3.91,3.91,0,0,0-2,2.61c0,.79-.19.88-.74,1.3s-1.21.51-1.21,1.58.14,2.37-.51,2.61-.84-.37-1.12.84a24.47,24.47,0,0,1-.7,2.47c-.37,1.21-.14,2.51-.65,2.89s-1.12-.93-1.63-.6-.47,1.21-.23,2,3.58,3.58,4.42,3.91,1.54,1.21.93,1.26-3.12-1.86-4.23-2.7-2.37-2.14-2.51-2.09,1.07,1.4,1,1.68-.74,1.21.65,1.68,2,.47,3,1.44,2.19,1.58.88,1.3a6.86,6.86,0,0,1-2.28-.65c-1.12-.51-3-3-3.16-2.28a1.81,1.81,0,0,0,1,2c.74.28,2.75,1.21,2.42,1.3s-.19.33-1.12,0-2.51-2.47-3.3-2.56-1.91,0-1.44.37,2.09.93,1.86,1.21-.93.19-1.35.7a1.66,1.66,0,0,1-2.09.45c-.88-.45-1.3-.68-1.72-.21s-.23.88.6,1.16,1.58.74,1.35.93-.19.6-.93.84-1.3,1.26-2.28,1.49-1.68.09-2.28,1.12-2.19,1-2.19,1.77,1,.28,1,1.07-.93,1.26-.47,1.86,1.12,1.4.56,1.63a.76.76,0,0,0-.14,1.35c.56.33-.33,1,1.86,2s4.14,3,5,3.54,5.35,3.21,5.35,2.7-.65-1-.33-1,9.82,4.84,12.47,5.4,2,.14,3.44.56,6.65,2.89,8.38,3,3.58.23,4.23.7,1.59.42,3.26.79a33.83,33.83,0,0,0,4.28,1.07c1.54.14,3.54.84,4.93.88s4.79.23,4.42.51-1.49,1-.37,1,8.56.23,15.82-.28,25.59-4,34.16-8,27.23-15.66,24.34-14.38c-.84.37-1.81.93-1.91.51s.42-1,1.16-1.77S559,210,559.86,209s7.07-6.61,8.7-8.79,4.09-4.14,3.21-4.09-.79.7-.88,0,1.86-2.93,1.44-2.61-2,2.09-2.79,2.09,0-.93-.14-1.21-1.3-1.07-.88-1.77,1.35-2.93,1.81-3.58,2.33-2.51,2.37-3.16a5,5,0,0,1,.79-2.14c.28-.28-.14-.51-.6.09s-2,3-2.56,3.26.37-1.21.88-2.28,2.93-4.19,2.89-4.7-.56-.09-.84.19-1.54.7-1.58,0,1.07-3.4,1.54-3.58.19,1.12.88,1.07.23,1.68,1,.93,2.19-2.51,2.89-3.21-.28.7-.51,1.4.17,1.91.76,1.12,3.06-5.63,3.66-6.51,1.86-2.28,1.49-1.58-4.75,8.66-4.93,8.89.42.47.65.14,5.26-10,5.77-10.52,1.58-.7,1.4,0-1.91,2.93-1,2.47,1.3-2.42,1.72-2.65,1.07-1.63,1.68-2,.23.28-.33,1.07-2.09,4.28-1.68,4,1.49-2.56,1.54-1.91a9.34,9.34,0,0,1-1.44,3.58,47.39,47.39,0,0,0-3,5.91c-.23.79-.37,1.3,0,.65A17.36,17.36,0,0,1,585,177a65.09,65.09,0,0,0,3.44-5.77c.47-.93,3.82-5.91,4-7.59s2.84-8.28,3.91-12.8a144.87,144.87,0,0,0,2.28-18,7.65,7.65,0,0,1,1-3.72,10,10,0,0,0,.33-2.65A24.21,24.21,0,0,1,599.64,123.22ZM403.46,87c-.28.47-.6,2.7-1.3,3.26a8.08,8.08,0,0,0-1.72,2.51c-.33.7-.88.09-.33-.7s2-3.12,2-4.33a3.12,3.12,0,0,1,1.3-2C403.64,85.81,403.74,86.55,403.46,87Zm30.76,43.65c0,.51-1,1-1.54.93s-.47-2-1.07-1.54-.88,2.09-.88,3.26.88,1.91.88,2.37,0,1.49-.23,1.58-.14-1.81-.93-2.93-1.07-1.12-1.49-1.26a5.07,5.07,0,0,0-2.23,0c-.84.19-1.12.47-1,2s.84,3.44.7,4-1-2.28-1.44-3.58-.7-1.12-1.16-.56-.79-1.21-1.63-.56,0,2.42-.51,2.84S421,135,421,134.16s-.42,1.63-.65,2.21,0,2.4-.42,1.93-.49-3.15-.28-3.86-.28-2.56-.28-3.44.88-1.16,1.12-1.77a5.23,5.23,0,0,1,2.37-2.19c1-.37,1.3-.93,2.33-1.07s.51,1,1.3,1.44.42-.88,1.54-.84.74.84,1.44,1.44.7-.42,2-.84,1.35.7,2.14,1.54A2.16,2.16,0,0,1,434.22,130.67ZM480.41,24.26c.46-.32,5.33-.65,6.38-.81,1.32-.2,4.52-.35,5.36-.42s1.51.39,1,.42a12.15,12.15,0,0,1-4.1.46c-1.72-.28-4.38.17-5.68.17S480,24.58,480.41,24.26ZM462,145.19c-.69-.9.56-1.3,1.49-1.07s.93-.51,1.63-.47,1.54.47,1.58-.09-1.63-.37-1.81-1.35,1.12-.7,2-.33,1.49.09,2,.6,0,1.35,0,2.7-1,.37-2.42,1.35-.14,1.86-.88,2.09S462.34,145.64,462,145.19Zm6.51-3.65c-1.21-.44-.37-1.42.56-1.56s.88.6.88,1.16S469.17,141.78,468.51,141.54ZM474,210.84c2.65.37,4.93.65,5.91.74s.93.74-1.07.33-1.1.37-3-.14-4.43-.7-6.38-1.4-1-.37-.37-.6C470.5,209.21,471.3,210.47,474,210.84Zm-15.82,15.45c-2.23-.19-5.4-1.81-4.37-1.91.61-.06,2.09.88,2.93.84s1.91.51,2.93.6a32.68,32.68,0,0,1,3.77.79c1.63.37,8.28,2,9.45,2.09s2.75.42,2.23.6,0,1.25-2,.88-4.7-1.16-7.21-1.67S460.37,226.48,458.14,226.29Zm17.54,6.42c-.47.14-1.44,0-1.12.33s.19.74-.14.79,1.43.56.6.47-6.93-1.26-8.19-1.4a25.16,25.16,0,0,1-5-1.21c-.93-.42.28-.28.7-.33s-1-1.21-.23-1.16,9.91,1.58,11.26,1.72S476.14,232.58,475.68,232.72Zm7.21-16.94c-.6.28-.42,0-2.19,0a51.68,51.68,0,0,1-8-.74c-2.33-.47-13.49-3.54-15.82-4.28s-4.82-1.62-4.47-2.56c.26-.7,1.7,0,1.1-.42s-1.48-.88-.73-.93,3.07,1.4,5.21,1.86,9.59,3,12.89,3.63,12,1.26,12,1.77,0,.6-1.21.56-2.79,0-1.54.33S483.5,215.5,482.89,215.78ZM486.64,36a56.06,56.06,0,0,0-6.3.88c-1.55.25-6.45,1-7.75,1.33s-5.64,1.4-4.66.81a38.21,38.21,0,0,1,6.13-1.61c1-.18,11.21-2.21,12.77-2.17s3.07,0,2.47.39S488.68,35.93,486.64,36Zm4,9.21c-1.44-.07-3.15.07-2.77-.35,1.12-1.22,3.64-.77,3.75-.32S492,45.28,490.6,45.21Zm5.19-13.59c-.74.74.74,1.33,0,2.17s-6.31.53-8.3.67-15.73,2.63-16.85,2.66-10.3,3.4-11,3.33,3.33-1.58,4.45-2.07,9.18-2.87,8.79-2.94-8.83,2.52-9.14,2.42,3.19-1.12,3.85-1.33.74-.77.6-.91-.7.56-1.65.53-9.36,2.59-10.44,3a13.11,13.11,0,0,1-3,1.09c-.48,0,1-.74,2.65-1.75s16.47-5.26,17-5.47,5-.91,2.07-.67-20.88,6.45-21.62,6.38,5.64-2,5-2.17-4.73,1.75-4.63,1.37,8.13-2.91,7.08-2.87,1.75-1.09,2.59-1.19,2.56-.81,2.21-1-3.64.74-3.29.39,7.32-2.07,8.13-2.24,2.38-.77,1.86-.83-4.38,1.32-5.36,1.32a19.42,19.42,0,0,0-3.85.7c-.67.21-2.45.81-2.79.42s9.06-2.35,10.32-2.82,4.31-1.14,3.54-1.14-12.65,3.4-13.77,3.33,8.23-3,8.73-3.08,1.61-.42,1-.53-.63-.72.28-.77a20.12,20.12,0,0,0,4-.88c1.16-.42,2.38-.56,2.87-.81s2.45,0,3.54-.28,2.84-.46,4.48-.81a7.13,7.13,0,0,1,3.71.15c.77.25.84-.07,1.26-.14s1.37.32,1,.35a7.75,7.75,0,0,0-1.51.53c-.42.18.49.18,1.23.6s-1.3.32-1.37.6,1.61-.14,3.15,0,2.77-.21,2.63.32-2.07,0-3.26,0a8.42,8.42,0,0,0-3,.39c-.84.35-7.22.84-9.07,1s-7.74,1.59-4,1.05S491.2,28.22,493.09,28s1.79.39,2,.77a5.09,5.09,0,0,0,2.38.95C498.38,29.94,496.52,30.88,495.79,31.62Zm9.39,49.68c-.18.6-.63.67-1.22,1.09s-1.16.46-1,0a4.06,4.06,0,0,1,.84-1.58c.42-.35-.14-.67-.81-.84s-.54-.92,0-.84c1,.14.74.35,1.68.67S505.35,80.71,505.18,81.3Zm.72-5.12c-.72.42-1-.42-.79-1.23s.91-1,.74-1.79.14-.86.84-.88c.42,0,.88.49,1.09.81s-.28.81-.42,1.37A3.25,3.25,0,0,1,505.9,76.19ZM509.21,110c-.21.14-.81,1.72-1.39,1.47s.54-1.51.61-2.24-.42-.88-.35-1.54.47-.51.7-.49c.44,0,1.54.6,1.3,1.23A5.09,5.09,0,0,1,509.21,110Zm26.24-35.39s1,1.16.7,1.65-.63-.32-1-.78S535.17,74.54,535.45,74.64Zm-3.12,3.15c.53.07.91,1.23,1.54,1.75s-.25.25-.67.21-.53-.7-.88-1.23S531.86,77.74,532.33,77.8Zm-20.11,28.06c-.35-.46-.67-.81-1-.84s-.19-.49.42-.25c.24.09,1.19.25,1.19.88S512.57,106.32,512.22,105.86Zm9.85-7.6c.25.53.45.81-.14.49s-1.23,0-.25.86,1,.82.7,1.35-1.12-1.16-1.47-1,.88,1.05,1,1.79-.74.84-1.48.7-1.3-1.79-1.58-1.79-.7.53-.91,1.19-.63.07-1.09.28.07,1.09-.21,1.58-.84.11-1.28-.28-.76.35-1.35.81-.67.81-1.61.18-.28-1-.42-1.61.32-.91.91-1.17.46-.41.7-.9.63-.42,1.12.14.91,1,1.57.63,0-1.23-.88-1.51-.77-.91-.56-1.61,1-.25,1.51-.35.74-.95,1.19-1.51.11-1,.25-1.19.7-.25.49-.6.26-.11.56-.25c.56-.25,2,1.37,2,1.37a7.79,7.79,0,0,1,2,1.79c.42.77-.46-.07-.87-.25S521.82,97.73,522.07,98.26Zm1.71-4a5.56,5.56,0,0,1-2.45-1.41c-.25-.2-1.05-.33-.77,0s2.38,1.76,2.7,2.47-.06,1.33-.47,1.16-.41-1.47-1.11-1.68-1.12-.18-1.72-.88-1.3-1.3-.63-1.44,1-.21,1.05-.7.21-.77.53-.67,0-.28.42-.35c.93-.15,1.44,1.33,2.21,1.89s1.72.67,1.51,1S524.76,94.37,523.78,94.3Zm7.6-7.43c-.39.35,0,1.23-.63,1.51s-.81.74-1.19.91-.35.81-.88.81-.46.28-.67.77-.11.25-1,.28,0,.42,0,1-1.37.39-2,.67-.7-.53-1.72-1.23-.53-1.16-1.09-1.47.21-.74.25-1.19.67,0,1.41,0,.24-.35,0-.77.88.53,1.33.18-1.33-.88-1.33-1.54.91-.91,1.79-.74,1.33.6,1.33.25,1,.18,1.65.67,1.12.74,1.19.28.84-1.16,1.33-1.75-.53-.7-1.73-1.91-.2-1.38.82-.88,1.79,1.14,1.83.76-1.62-1.4-2.32-2.14-.18-1.09.57-1.47,1.08-.07.55-.74-.7-.68-.42-.73c.52-.11.35.21,1.05.73a11.06,11.06,0,0,1,2.31,2.46c.1.39.1.91.33,1.13s.8.69.48,1.32-.63.35-1.23.81.31.84,0,1.12-.39-.21-.77.28S531.77,86.52,531.39,86.87Zm1.46,64.73c.16-.09,1-1.12,1.28-1.07s-.13.41-.33,1.07C533.47,152.68,532.68,151.7,532.85,151.61Zm3.42,7.77c-.74.56-2.09,2.84-2.75,3.35s-1.12.28,0-.56,2.55-3.69,3.21-4S537,158.82,536.27,159.38Zm3.21-3.07a1.67,1.67,0,0,1-1.81.7c-.65-.19.37-1.12.88-1.75s1.16-1.42,1.26-1,.84.93.88,1.35S539.89,155.78,539.48,156.31Zm3.82-82.64c-.56.18-1.19.08-1.12,1s.6,1.27,0,1.42-1.12.39-1.54,0-1.61-1.26-1.23-.7,1.12,1.27.42,1.11a2.4,2.4,0,0,1-1.61-.91,7.27,7.27,0,0,0-1.89-1.7c-.52-.13-1.09-1.4-.46-1.19s1.54.81,1.4.35-1.44-.77-.63-1.16.95-.6,1.58-.18,1.58.74,1.26.39-.91-1.23-.6-1.68a1,1,0,0,1,1.68,0c.42.67,1,.74,2,1.23S543.86,73.49,543.3,73.66Zm14.79,92.42c.7-.28.47.23.56.7s-.42.65-1.07,1.18-.51.68-.51,0A2.65,2.65,0,0,1,558.09,166.08Zm-1.68-.93c.79-.51,1.16-.47.84,0s-1.49,1-.93,1.54.26,1-.52,1.72-1.06,1.44-1.57,1.77-1.54.6-1.26,0,1.3-1.26,1.26-2.21C554.2,167.34,555.62,165.66,556.41,165.15Zm-9.21,1.21c-.33.28-.37-1.21,0-1.86s1.58-2.19,1.54-2.61-.93,1-1.3,1.3-1.35.14-.88-.88.88-.7,1.58-1.26,1.53-.74,1.55-.37.73.42.45,1.12a15.63,15.63,0,0,1-1.4,2.31A20.39,20.39,0,0,1,547.2,166.36Zm2.65-.78c-.33.27-.09-.66,0-1.22s.51-1.77,1.12-1.77,1.4.54.42,1.2A20.48,20.48,0,0,0,549.85,165.58Zm3.21-.72a11.75,11.75,0,0,1,1.14-1.62c.3-.23.67.47.67,1.12s-1.27.89-1.35,1.35c-.23,1.3-1.81,2.56-1.89,2.19A8.84,8.84,0,0,1,553.06,164.86Zm-.37,13.88c-.65.09-1.4-1.17-.88-1.58s3.44-4.81,4-5.31,3-4.32,3.86-4.79a9.08,9.08,0,0,0,1.91-2.14c.23-.23.37.33,0,1.07a6.54,6.54,0,0,0-.88,2.65c-.14,1.3.34.77-.33,1.91-.52.9-3.12,5.07-3.82,5.35s-1.78-.33-2,.65S553.34,178.65,552.69,178.74Zm10.56.74c-.7.79-2.09,3.26-2.79,3.68s0-1.12-.56-.84-2.79,3.16-3.63,3.21-.84-.37,0-1.44,2.56-2.84,2.19-3.44-1.3-.6-1.91.42-2,2.61-2,1.58-.65-1.44.84-2.7,4.28-5.82,5-6.89.84-2.61,1.72-3.16,2.37-2.79,2.93-2.79-.42,1.26-.6,1.86,1.3-.37,2-.37-.6,1.12.28,1,2-2.33,3-3.63,1.58-2.84,1.44-1.81-2.89,5.15-2.79,6.93c0,.84-2.3,4.79-2.87,5.49S564,178.69,563.25,179.48Zm9-3c-.47.14-.79-.33-1.49-.37s-1.72,2.42-2.28,2.61-.28-.24-.7-1.12-.88.84-1.49,1.07-.88-.37-.74-1.16,2.93-4.61,3.3-5.17,1.26-.7,1,0-.33,1.21,0,1.07.6.56.65,1,.23.56.6,1.07S572.68,176.34,572.28,176.46Z"/><path class="cls-4" d="M405.44,349.14a19.27,19.27,0,1,1,18.83-19.27,19.05,19.05,0,0,1-18.83,19.27m0-50.6a31.33,31.33,0,1,0,31.33,31.33,31.33,31.33,0,0,0-31.33-31.33"/><path class="cls-4" d="M567.66,349.14a19.27,19.27,0,1,1,18.83-19.27,19.05,19.05,0,0,1-18.83,19.27m0-50.6A31.33,31.33,0,1,0,599,329.87a31.33,31.33,0,0,0-31.33-31.33"/><path class="cls-4" d="M33.65,324.15q-1-2.69-1.78-5.21t-1.26-4.25q-.43,1.74-1.26,4.25t-1.78,5.21l-3.91,11H37.56ZM46.5,360.25l-4.77-13.54H19.51l-4.77,13.54h-13L25,299.5H36.78l23.09,60.76Z"/><path class="cls-4" d="M106.65,319.11q0-4.17-2.3-5.95A10.19,10.19,0,0,0,98,311.39H82.08V327H98q8.68,0,8.68-7.9m-1.48,41.14L94.32,338.38H82.08v21.87H70V299.5H98.23a27.4,27.4,0,0,1,8.07,1.17,18.71,18.71,0,0,1,6.69,3.6,17.2,17.2,0,0,1,4.51,6,20.2,20.2,0,0,1,1.65,8.46q0,6.86-2.91,11.24a17.78,17.78,0,0,1-8.72,6.64l11.63,23.61Z"/><polygon class="cls-4" points="157.25 311.48 157.25 360.25 145.18 360.25 145.18 311.48 127.74 311.48 127.74 299.5 174.69 299.5 174.69 311.48 157.25 311.48"/><path class="cls-4" d="M227.9,341.85a21.55,21.55,0,0,1-1.39,7.9,15.37,15.37,0,0,1-4.34,6.12,20.3,20.3,0,0,1-7.42,4A36.46,36.46,0,0,1,204,361.21a32.13,32.13,0,0,1-13.89-3,23.57,23.57,0,0,1-9.72-8.07l8.77-7.81a18.79,18.79,0,0,0,7.16,5.34,22,22,0,0,0,8.38,1.61q5.47,0,8-1.56a5.46,5.46,0,0,0,2.56-5,5.86,5.86,0,0,0-.52-2.56,5.39,5.39,0,0,0-2-2,17.13,17.13,0,0,0-4.12-1.82q-2.69-.87-6.95-1.82a62.46,62.46,0,0,1-7.68-2.26,21.88,21.88,0,0,1-6-3.3,13.4,13.4,0,0,1-3.9-5,18.12,18.12,0,0,1-1.39-7.55,16.13,16.13,0,0,1,1.69-7.46,16.69,16.69,0,0,1,4.64-5.6,21.26,21.26,0,0,1,6.9-3.52,28.65,28.65,0,0,1,8.46-1.22,28.94,28.94,0,0,1,12.46,2.52,32.84,32.84,0,0,1,9.68,7l-8.77,8.51a22.26,22.26,0,0,0-6.29-4.64,17.11,17.11,0,0,0-7.51-1.61,14.92,14.92,0,0,0-4.08.48,8.34,8.34,0,0,0-2.69,1.26,4.55,4.55,0,0,0-1.48,1.74,4.77,4.77,0,0,0-.43,2,5,5,0,0,0,.56,2.47,4.9,4.9,0,0,0,2,1.78,18.36,18.36,0,0,0,3.73,1.48q2.34.69,6,1.56t7.25,2a23.58,23.58,0,0,1,6.51,3.26,15.34,15.34,0,0,1,6.56,13.45"/><rect class="cls-4" x="263.31" y="299.5" width="12.06" height="60.76"/><path class="cls-4" d="M331,360.25,308.67,327.1q-1.13-1.73-2.39-3.69a35.24,35.24,0,0,1-1.87-3.17q0,.87,0,2.56c0,1.13,0,2.34,0,3.65s0,2.59,0,3.86,0,2.34,0,3.21v26.73H292.52V299.5h11.72l21.45,32.11,2.38,3.69a35.59,35.59,0,0,1,1.86,3.17c0-.58,0-1.43,0-2.56s0-2.34,0-3.65,0-2.59,0-3.86,0-2.34,0-3.21V299.5h12.06v60.76Z"/><polygon class="cls-4" points="484.17 360.25 484.17 334.74 459.17 334.74 459.17 360.25 447.11 360.25 447.11 299.5 459.17 299.5 459.17 322.76 484.17 322.76 484.17 299.5 496.23 299.5 496.23 360.25 484.17 360.25"/><rect class="cls-4" x="511.68" y="299.5" width="12.06" height="60.76"/></svg>